#!OML:ASF F:\VICON\USERDATA\INSTALL\rory3\rory3.ASF
:FULLY-SPECIFIED
:DEGREES
476
root -0.765068 22.1517 -33.1595 -294.631 40.1742 76.6356
lowerback -4.70614 -32.0472 -12.0092
upperback -15.2284 -43.9919 -3.10681
thorax -11.4083 -21.4184 1.56057
lowerneck -17.3693 1.71525 0.00428157
upperneck 44.2066 5.22741 -6.73122
head 20.8521 0.884937 -2.40257
rclavicle -1.41336e-013 9.06458e-014
rhumerus 57.8088 -38.6156 -15.3543
rradius 73.885
rwrist -81.6591
rhand -20.6391 17.9999
rfingers 7.12502
rthumb 5.72282 -11.9028
lclavicle -1.41336e-013 9.06458e-014
lhumerus 53.3685 24.9951 -12.467
lradius 53.891
lwrist -21.8384
lhand -7.13556 16.614
lfingers 7.12502
lthumb 18.7404 45.7312
rfemur -22.2614 -47.4025 14.4583
rtibia 59.2583
rfoot -29.3906 -46.5231
rtoes 16.2695
lfemur -40.6052 -49.8653 -12.2801
ltibia 51.4762
lfoot -120.172 164.725
ltoes 7.08339
477
root -0.890705 22.2117 -33.1815 -295.69 39.4729 80.9289
lowerback 2.08853 -31.9682 -17.3642
upperback -14.3862 -45.574 -4.85404
thorax -11.8217 -21.4854 3.55009
lowerneck -16.0268 1.69882 -0.518698
upperneck 44.253 5.16126 -6.30643
head 20.4176 0.85106 -2.09434
rclavicle 4.85035e-014 1.59028e-015
rhumerus 56.8882 -38.4212 -14.3381
rradius 72.3987
rwrist -82.2074
rhand -20.1831 18.2663
rfingers 7.12502
rthumb 6.16308 -11.6241
lclavicle 4.85035e-014 1.59028e-015
lhumerus 51.7901 23.7663 -12.6945
lradius 53.91
lwrist -21.6251
lhand -7.03934 16.7047
lfingers 7.12502
lthumb 18.833 45.813
rfemur -14.3804 -51.2109 1.55445
rtibia 59.8218
rfoot -25.5525 -41.5097
rtoes 15.9507
lfemur -34.6167 -51.4415 -15.3896
ltibia 51.0723
lfoot -120.21 166.197
ltoes 6.84048
478
root -1.00002 22.2364 -33.2056 -295.481 39.8691 85.6271
lowerback 7.68191 -32.066 -21.495
upperback -13.1253 -47.3947 -6.28217
thorax -11.5714 -21.8719 4.89126
lowerneck -15.6543 1.79034 -0.856547
upperneck 44.3445 5.22361 -5.83471
head 20.3279 0.888456 -1.77899
rclavicle -6.04305e-014 -3.4191e-014
rhumerus 56.5192 -38.7472 -14.116
rradius 70.7575
rwrist -82.3327
rhand -19.9286 18.2402
rfingers 7.12502
rthumb 6.40876 -11.6428
lclavicle -6.04305e-014 -3.4191e-014
lhumerus 50.1148 23.2028 -12.98
lradius 53.8242
lwrist -21.3275
lhand -6.6363 16.7454
lfingers 7.12502
lthumb 19.2206 45.8156
rfemur -6.15955 -53.8404 -10.542
rtibia 59.8972
rfoot -23.5747 -38.0852
rtoes 16.646
lfemur -30.9011 -52.9461 -15.7697
ltibia 50.5406
lfoot -120.217 167.047
ltoes 7.05826
479
root -1.10998 22.2355 -33.2439 -295.825 39.969 89.2478
lowerback 13.1207 -31.3374 -24.9491
upperback -11.8015 -48.4495 -7.90183
thorax -11.7463 -21.8271 6.22534
lowerneck -15.3053 1.53919 -0.782398
upperneck 44.5961 4.69495 -5.57671
head 20.3506 0.743054 -1.77942
rclavicle -4.92986e-014 1.27222e-014
rhumerus 54.6921 -39.1779 -12.4246
rradius 69.1125
rwrist -82.4079
rhand -19.6142 17.5776
rfingers 7.12502
rthumb 6.71221 -12.296
lclavicle -4.92986e-014 1.27222e-014
lhumerus 49.3631 22.6901 -12.5372
lradius 53.9089
lwrist -20.5411
lhand -5.881 16.7169
lfingers 7.12502
lthumb 19.9468 45.7132
rfemur 2.45217 -55.0879 -23.2927
rtibia 59.6636
rfoot -19.3186 -35.6238
rtoes 19.5753
lfemur -27.5977 -54.0814 -15.7745
ltibia 50.0668
lfoot -120.345 168.518
ltoes 8.9271
480
root -1.2221 22.2053 -33.2897 -297.698 38.7626 92.7206
lowerback 19.8603 -29.452 -29.6225
upperback -10.2677 -49.0984 -9.9874
thorax -12.0365 -21.3168 7.95761
lowerneck -15.7028 1.04724 -0.686239
upperneck 45.1227 3.79401 -5.24487
head 20.7806 0.459553 -1.83833
rclavicle -3.20043e-014 -6.67916e-014
rhumerus 52.044 -39.9263 -9.91751
rradius 67.4486
rwrist -82.6448
rhand -19.0982 16.9305
rfingers 7.12502
rthumb 7.21036 -12.9267
lclavicle -3.20043e-014 -6.67916e-014
lhumerus 49.3394 22.487 -11.2142
lradius 53.871
lwrist -20.069
lhand -5.30902 16.7697
lfingers 7.12502
lthumb 20.4965 45.7078
rfemur 13.0631 -54.1991 -39.6672
rtibia 59.1201
rfoot -11.3427 -34.6905
rtoes 24.8453
lfemur -21.6414 -54.7913 -19.3956
ltibia 49.7063
lfoot -120.892 169.741
ltoes 9.50312
481
root -1.31884 22.155 -33.3411 -297.935 38.8257 96.5427
lowerback 24.5648 -28.1351 -32.5567
upperback -8.13437 -49.4618 -12.1662
thorax -10.8155 -21.192 7.94999
lowerneck -16.9654 0.549058 0.0632119
upperneck 45.4455 2.52039 -4.65976
head 21.3259 0.191092 -1.9639
rclavicle -5.76476e-014 7.95139e-016
rhumerus 48.6874 -41.4789 -7.58805
rradius 65.7363
rwrist -82.8572
rhand -18.9938 16.3445
rfingers 7.12502
rthumb 7.31113 -13.5092
lclavicle -5.76476e-014 7.95139e-016
lhumerus 50.1462 23.1256 -9.91164
lradius 53.6116
lwrist -19.8615
lhand -4.9954 16.8902
lfingers 7.12502
lthumb 20.7978 45.7956
rfemur 21.8973 -52.8767 -52.5995
rtibia 57.9952
rfoot -11.2068 -30.948
rtoes 27.2726
lfemur -19.0717 -55.5568 -19.175
ltibia 49.4403
lfoot -121.801 170.137
ltoes 7.92707
482
root -1.40708 22.0721 -33.3938 -297.904 39.1523 99.8944
lowerback 28.9832 -27.4502 -34.9526
upperback -7.92459 -51.1884 -12.9784
thorax -11.5307 -21.3275 9.39342
lowerneck -14.5556 0.829091 -0.674215
upperneck 45.361 2.99067 -4.2589
head 20.5035 0.312796 -1.49523
rclavicle -6.97734e-014 0
rhumerus 48.6359 -40.3829 -7.47165
rradius 64.1622
rwrist -83.2635
rhand -19.3063 16.1465
rfingers 7.12502
rthumb 7.0095 -13.7175
lclavicle -6.97734e-014 0
lhumerus 47.4992 21.0617 -10.5738
lradius 53.8988
lwrist -18.7295
lhand -4.96648 17.5384
lfingers 7.12502
lthumb 20.8256 46.4407
rfemur 29.6511 -51.1831 -63.9188
rtibia 56.3823
rfoot -7.02302 -29.6259
rtoes 33.662
lfemur -17.8609 -56.2504 -17.3603
ltibia 49.2467
lfoot -123.391 170.35
ltoes 5.60367
483
root -1.49477 21.9795 -33.4522 -298.607 38.9881 102.845
lowerback 32.991 -25.8384 -37.8134
upperback -5.80244 -51.1872 -14.599
thorax -10.4 -21.1344 9.35297
lowerneck -15.0895 0.574114 -0.0428694
upperneck 45.1238 2.13244 -3.67467
head 20.4415 0.18638 -1.47451
rclavicle -8.61732e-014 7.63333e-014
rhumerus 46.0273 -41.6912 -6.07031
rradius 62.504
rwrist -83.2658
rhand -19.5996 16.015
rfingers 7.12502
rthumb 6.72634 -13.8581
lclavicle -8.61732e-014 7.63333e-014
lhumerus 47.2493 21.5362 -10.315
lradius 54.0919
lwrist -17.7442
lhand -4.97858 18.0217
lfingers 7.12502
lthumb 20.814 46.9253
rfemur 35.8271 -48.3719 -74.2673
rtibia 54.1778
rfoot -5.97773 -26.2687
rtoes 34.9871
lfemur -15.8838 -56.9485 -16.6797
ltibia 49.0442
lfoot -124.254 172.054
ltoes 6.21201
484
root -1.57857 21.8913 -33.5165 -299.218 38.6063 106.615
lowerback 38.1749 -24.2181 -39.1957
upperback -4.83546 -52.2123 -16.0835
thorax -11.5727 -20.7592 10.6839
lowerneck -16.2687 0.146155 -0.104838
upperneck 45.9095 1.4045 -3.37726
head 21.3526 -0.0550892 -1.49947
rclavicle -8.11041e-014 -2.38542e-015
rhumerus 43.5166 -42.0662 -3.59015
rradius 60.9492
rwrist -82.8866
rhand -19.814 15.6472
rfingers 7.12502
rthumb 6.51933 -14.2324
lclavicle -8.11041e-014 -2.38542e-015
lhumerus 46.7721 21.176 -8.87151
lradius 54.2558
lwrist -17.1885
lhand -4.57227 18.2423
lfingers 7.12502
lthumb 21.2043 47.1026
rfemur 42.225 -44.8897 -85.7206
rtibia 51.4052
rfoot -3.27994 -23.2625
rtoes 37.7577
lfemur -13.7634 -58.0687 -16.9486
ltibia 48.9704
lfoot -125.166 172.412
ltoes 5.26914
485
root -1.65826 21.7566 -33.5601 -299.514 38.2546 110.821
lowerback 42.8171 -22.4384 -42.3991
upperback -3.76657 -53.3046 -17.2647
thorax -11.2655 -20.699 11.1042
lowerneck -14.7065 0.162102 -0.182109
upperneck 45.7705 1.29938 -3.06019
head 20.741 -0.0528813 -1.31797
rclavicle -7.7526e-015 4.05521e-014
rhumerus 42.2731 -41.9849 -3.04907
rradius 59.1348
rwrist -81.6305
rhand -19.209 14.9949
rfingers 7.12502
rthumb 7.10339 -14.8659
lclavicle -7.7526e-015 4.05521e-014
lhumerus 45.4043 20.3756 -8.51519
lradius 54.5474
lwrist -16.5488
lhand -3.99666 18.1754
lfingers 7.12502
lthumb 21.7572 46.9726
rfemur 48.6754 -41.0911 -97.3832
rtibia 47.8407
rfoot 3.04125 -22.1358
rtoes 39.7897
lfemur -11.8295 -59.4023 -17.2105
ltibia 48.7906
lfoot -126.02 172.329
ltoes 2.51376
486
root -1.73062 21.6416 -33.6141 -299.259 38.1483 115.076
lowerback 47.6195 -20.6339 -44.5965
upperback -3.3373 -54.1469 -17.0841
thorax -11.1968 -20.6064 11.4444
lowerneck -13.547 -0.261194 -1.3175
upperneck 44.6067 0.418401 -1.70235
head 19.5307 -0.383907 -0.551874
rclavicle 5.20816e-014 -8.0309e-014
rhumerus 39.912 -42.3412 -1.10234
rradius 57.8902
rwrist -81.5465
rhand -19.6254 15.2009
rfingers 7.12502
rthumb 6.70149 -14.673
lclavicle 5.20816e-014 -8.0309e-014
lhumerus 44.427 20.3434 -7.55334
lradius 54.7464
lwrist -16.0057
lhand -3.52006 18.0916
lfingers 7.12502
lthumb 22.2148 46.835
rfemur 54.6081 -37.6214 -108.526
rtibia 43.495
rfoot 6.44371 -19.2745
rtoes 41.439
lfemur -11.6148 -61.0783 -16.0673
ltibia 48.8043
lfoot -126.559 173.486
ltoes 1.79248
487
root -1.80068 21.4746 -33.6915 -300.728 37.1793 118.7
lowerback 52.6879 -18.1799 -46.9037
upperback -3.13319 -55.2697 -17.7053
thorax -11.85 -20.1523 12.2299
lowerneck -12.8299 -0.405369 -1.9244
upperneck 44.4742 0.171344 -1.17099
head 19.2321 -0.498754 -0.216705
rclavicle -9.06458e-014 6.67916e-014
rhumerus 37.6959 -41.7506 0.984846
rradius 56.6718
rwrist -81.241
rhand -19.7278 15.0544
rfingers 7.12502
rthumb 6.60257 -14.8227
lclavicle -9.06458e-014 6.67916e-014
lhumerus 42.7577 19.3311 -7.22894
lradius 54.9362
lwrist -15.5014
lhand -3.92096 17.9695
lfingers 7.12502
lthumb 21.8299 46.7583
rfemur 58.2599 -34.0476 -119.209
rtibia 38.0875
rfoot 17.5557 -19.8952
rtoes 41.6325
lfemur -7.89108 -62.7467 -18.5913
ltibia 48.6929
lfoot -127.383 176.142
ltoes 4.05481
488
root -1.86577 21.3166 -33.7503 -301.962 36.2034 122.819
lowerback 57.5511 -15.4629 -49.3366
upperback -2.37147 -55.889 -18.2147
thorax -11.6103 -19.7676 12.3206
lowerneck -14.2937 -0.7343 -1.54416
upperneck 45.1378 -0.350618 -1.27788
head 20.1128 -0.642516 -0.457441
rclavicle 9.63112e-014 9.62118e-014
rhumerus 35.0957 -42.2031 2.97134
rradius 55.2234
rwrist -80.2925
rhand -19.4445 14.5161
rfingers 7.12502
rthumb 6.87604 -15.3522
lclavicle 9.63112e-014 9.62118e-014
lhumerus 41.894 19.2013 -6.64243
lradius 54.7359
lwrist -15.3961
lhand -4.76281 18.3082
lfingers 7.12502
lthumb 21.0213 47.1889
rfemur 59.3185 -30.5155 -125.168
rtibia 32.0076
rfoot 24.5956 -19.1416
rtoes 37.6812
lfemur -4.5244 -63.9793 -21.4853
ltibia 48.7298
lfoot -128.183 175.048
ltoes 3.3837
489
root -1.92762 21.0938 -33.8151 -302.277 35.4747 127.603
lowerback 62.3376 -12.4133 -52.3125
upperback -2.12283 -56.562 -17.749
thorax -10.7523 -19.5326 12.4228
lowerneck -14.0672 -0.895222 -1.62104
upperneck 45.0982 -0.608784 -1.13609
head 20.0177 -0.721708 -0.415802
rclavicle 1.15196e-013 -2.22639e-014
rhumerus 32.9458 -42.445 4.61588
rradius 53.9847
rwrist -79.7465
rhand -19.1742 14.019
rfingers 7.12502
rthumb 7.13698 -15.8407
lclavicle 1.15196e-013 -2.22639e-014
lhumerus 40.7045 18.8433 -6.12709
lradius 54.4796
lwrist -15.2857
lhand -5.13637 18.4208
lfingers 7.12502
lthumb 20.6624 47.341
rfemur 62.081 -27.5592 -133.64
rtibia 25.3916
rfoot 26.1969 -16.3019
rtoes 32.3318
lfemur -2.98878 -65.7091 -22.8041
ltibia 48.6853
lfoot -127.489 175.332
ltoes 3.47322
